G04 #@! TF.GenerationSoftware,KiCad,Pcbnew,(5.1.4)-1*
G04 #@! TF.CreationDate,2020-11-28T02:53:26-06:00*
G04 #@! TF.ProjectId,O2_Sensor_Hardware,4f325f53-656e-4736-9f72-5f4861726477,rev?*
G04 #@! TF.SameCoordinates,Original*
G04 #@! TF.FileFunction,Soldermask,Bot*
G04 #@! TF.FilePolarity,Negative*
%FSLAX46Y46*%
G04 Gerber Fmt 4.6, Leading zero omitted, Abs format (unit mm)*
G04 Created by KiCad (PCBNEW (5.1.4)-1) date 2020-11-28 02:53:26*
%MOMM*%
%LPD*%
G04 APERTURE LIST*
%ADD10C,0.100000*%
G04 APERTURE END LIST*
D10*
G36*
X150699642Y-117011242D02*
G01*
X150847601Y-117072529D01*
X150980755Y-117161499D01*
X151094001Y-117274745D01*
X151182971Y-117407899D01*
X151244258Y-117555858D01*
X151275500Y-117712925D01*
X151275500Y-117873075D01*
X151244258Y-118030142D01*
X151182971Y-118178101D01*
X151094001Y-118311255D01*
X150980755Y-118424501D01*
X150847601Y-118513471D01*
X150699642Y-118574758D01*
X150542575Y-118606000D01*
X150382425Y-118606000D01*
X150225358Y-118574758D01*
X150077399Y-118513471D01*
X149944245Y-118424501D01*
X149830999Y-118311255D01*
X149742029Y-118178101D01*
X149680742Y-118030142D01*
X149649500Y-117873075D01*
X149649500Y-117712925D01*
X149680742Y-117555858D01*
X149742029Y-117407899D01*
X149830999Y-117274745D01*
X149944245Y-117161499D01*
X150077399Y-117072529D01*
X150225358Y-117011242D01*
X150382425Y-116980000D01*
X150542575Y-116980000D01*
X150699642Y-117011242D01*
X150699642Y-117011242D01*
G37*
G36*
X155799642Y-117011242D02*
G01*
X155947601Y-117072529D01*
X156080755Y-117161499D01*
X156194001Y-117274745D01*
X156282971Y-117407899D01*
X156344258Y-117555858D01*
X156375500Y-117712925D01*
X156375500Y-117873075D01*
X156344258Y-118030142D01*
X156282971Y-118178101D01*
X156194001Y-118311255D01*
X156080755Y-118424501D01*
X155947601Y-118513471D01*
X155799642Y-118574758D01*
X155642575Y-118606000D01*
X155482425Y-118606000D01*
X155325358Y-118574758D01*
X155177399Y-118513471D01*
X155044245Y-118424501D01*
X154930999Y-118311255D01*
X154842029Y-118178101D01*
X154780742Y-118030142D01*
X154749500Y-117873075D01*
X154749500Y-117712925D01*
X154780742Y-117555858D01*
X154842029Y-117407899D01*
X154930999Y-117274745D01*
X155044245Y-117161499D01*
X155177399Y-117072529D01*
X155325358Y-117011242D01*
X155482425Y-116980000D01*
X155642575Y-116980000D01*
X155799642Y-117011242D01*
X155799642Y-117011242D01*
G37*
G36*
X155799642Y-104311242D02*
G01*
X155947601Y-104372529D01*
X156080755Y-104461499D01*
X156194001Y-104574745D01*
X156282971Y-104707899D01*
X156344258Y-104855858D01*
X156375500Y-105012925D01*
X156375500Y-105173075D01*
X156344258Y-105330142D01*
X156282971Y-105478101D01*
X156194001Y-105611255D01*
X156080755Y-105724501D01*
X155947601Y-105813471D01*
X155799642Y-105874758D01*
X155642575Y-105906000D01*
X155482425Y-105906000D01*
X155325358Y-105874758D01*
X155177399Y-105813471D01*
X155044245Y-105724501D01*
X154930999Y-105611255D01*
X154842029Y-105478101D01*
X154780742Y-105330142D01*
X154749500Y-105173075D01*
X154749500Y-105012925D01*
X154780742Y-104855858D01*
X154842029Y-104707899D01*
X154930999Y-104574745D01*
X155044245Y-104461499D01*
X155177399Y-104372529D01*
X155325358Y-104311242D01*
X155482425Y-104280000D01*
X155642575Y-104280000D01*
X155799642Y-104311242D01*
X155799642Y-104311242D01*
G37*
G36*
X153249642Y-104311242D02*
G01*
X153397601Y-104372529D01*
X153530755Y-104461499D01*
X153644001Y-104574745D01*
X153732971Y-104707899D01*
X153794258Y-104855858D01*
X153825500Y-105012925D01*
X153825500Y-105173075D01*
X153794258Y-105330142D01*
X153732971Y-105478101D01*
X153644001Y-105611255D01*
X153530755Y-105724501D01*
X153397601Y-105813471D01*
X153249642Y-105874758D01*
X153092575Y-105906000D01*
X152932425Y-105906000D01*
X152775358Y-105874758D01*
X152627399Y-105813471D01*
X152494245Y-105724501D01*
X152380999Y-105611255D01*
X152292029Y-105478101D01*
X152230742Y-105330142D01*
X152199500Y-105173075D01*
X152199500Y-105012925D01*
X152230742Y-104855858D01*
X152292029Y-104707899D01*
X152380999Y-104574745D01*
X152494245Y-104461499D01*
X152627399Y-104372529D01*
X152775358Y-104311242D01*
X152932425Y-104280000D01*
X153092575Y-104280000D01*
X153249642Y-104311242D01*
X153249642Y-104311242D01*
G37*
G36*
X152002142Y-96944742D02*
G01*
X152150101Y-97006029D01*
X152283255Y-97094999D01*
X152396501Y-97208245D01*
X152485471Y-97341399D01*
X152546758Y-97489358D01*
X152578000Y-97646425D01*
X152578000Y-97806575D01*
X152546758Y-97963642D01*
X152485471Y-98111601D01*
X152396501Y-98244755D01*
X152283255Y-98358001D01*
X152150101Y-98446971D01*
X152002142Y-98508258D01*
X151845075Y-98539500D01*
X151684925Y-98539500D01*
X151527858Y-98508258D01*
X151379899Y-98446971D01*
X151246745Y-98358001D01*
X151133499Y-98244755D01*
X151044529Y-98111601D01*
X150983242Y-97963642D01*
X150952000Y-97806575D01*
X150952000Y-97646425D01*
X150983242Y-97489358D01*
X151044529Y-97341399D01*
X151133499Y-97208245D01*
X151246745Y-97094999D01*
X151379899Y-97006029D01*
X151527858Y-96944742D01*
X151684925Y-96913500D01*
X151845075Y-96913500D01*
X152002142Y-96944742D01*
X152002142Y-96944742D01*
G37*
G36*
X149462142Y-96944742D02*
G01*
X149610101Y-97006029D01*
X149743255Y-97094999D01*
X149856501Y-97208245D01*
X149945471Y-97341399D01*
X150006758Y-97489358D01*
X150038000Y-97646425D01*
X150038000Y-97806575D01*
X150006758Y-97963642D01*
X149945471Y-98111601D01*
X149856501Y-98244755D01*
X149743255Y-98358001D01*
X149610101Y-98446971D01*
X149462142Y-98508258D01*
X149305075Y-98539500D01*
X149144925Y-98539500D01*
X148987858Y-98508258D01*
X148839899Y-98446971D01*
X148706745Y-98358001D01*
X148593499Y-98244755D01*
X148504529Y-98111601D01*
X148443242Y-97963642D01*
X148412000Y-97806575D01*
X148412000Y-97646425D01*
X148443242Y-97489358D01*
X148504529Y-97341399D01*
X148593499Y-97208245D01*
X148706745Y-97094999D01*
X148839899Y-97006029D01*
X148987858Y-96944742D01*
X149144925Y-96913500D01*
X149305075Y-96913500D01*
X149462142Y-96944742D01*
X149462142Y-96944742D01*
G37*
G36*
X154542142Y-96944742D02*
G01*
X154690101Y-97006029D01*
X154823255Y-97094999D01*
X154936501Y-97208245D01*
X155025471Y-97341399D01*
X155086758Y-97489358D01*
X155118000Y-97646425D01*
X155118000Y-97806575D01*
X155086758Y-97963642D01*
X155025471Y-98111601D01*
X154936501Y-98244755D01*
X154823255Y-98358001D01*
X154690101Y-98446971D01*
X154542142Y-98508258D01*
X154385075Y-98539500D01*
X154224925Y-98539500D01*
X154067858Y-98508258D01*
X153919899Y-98446971D01*
X153786745Y-98358001D01*
X153673499Y-98244755D01*
X153584529Y-98111601D01*
X153523242Y-97963642D01*
X153492000Y-97806575D01*
X153492000Y-97646425D01*
X153523242Y-97489358D01*
X153584529Y-97341399D01*
X153673499Y-97208245D01*
X153786745Y-97094999D01*
X153919899Y-97006029D01*
X154067858Y-96944742D01*
X154224925Y-96913500D01*
X154385075Y-96913500D01*
X154542142Y-96944742D01*
X154542142Y-96944742D01*
G37*
G36*
X157082142Y-96944742D02*
G01*
X157230101Y-97006029D01*
X157363255Y-97094999D01*
X157476501Y-97208245D01*
X157565471Y-97341399D01*
X157626758Y-97489358D01*
X157658000Y-97646425D01*
X157658000Y-97806575D01*
X157626758Y-97963642D01*
X157565471Y-98111601D01*
X157476501Y-98244755D01*
X157363255Y-98358001D01*
X157230101Y-98446971D01*
X157082142Y-98508258D01*
X156925075Y-98539500D01*
X156764925Y-98539500D01*
X156607858Y-98508258D01*
X156459899Y-98446971D01*
X156326745Y-98358001D01*
X156213499Y-98244755D01*
X156124529Y-98111601D01*
X156063242Y-97963642D01*
X156032000Y-97806575D01*
X156032000Y-97646425D01*
X156063242Y-97489358D01*
X156124529Y-97341399D01*
X156213499Y-97208245D01*
X156326745Y-97094999D01*
X156459899Y-97006029D01*
X156607858Y-96944742D01*
X156764925Y-96913500D01*
X156925075Y-96913500D01*
X157082142Y-96944742D01*
X157082142Y-96944742D01*
G37*
M02*
