G04 #@! TF.GenerationSoftware,KiCad,Pcbnew,(5.1.5)-2*
G04 #@! TF.CreationDate,2020-03-19T14:07:12-05:00*
G04 #@! TF.ProjectId,O2_Sensor_Hardware,4f325f53-656e-4736-9f72-5f4861726477,rev?*
G04 #@! TF.SameCoordinates,Original*
G04 #@! TF.FileFunction,Legend,Top*
G04 #@! TF.FilePolarity,Positive*
%FSLAX46Y46*%
G04 Gerber Fmt 4.6, Leading zero omitted, Abs format (unit mm)*
G04 Created by KiCad (PCBNEW (5.1.5)-2) date 2020-03-19 14:07:12*
%MOMM*%
%LPD*%
G04 APERTURE LIST*
%ADD10C,0.120000*%
%ADD11C,0.150000*%
G04 APERTURE END LIST*
D10*
X163012500Y-112093000D02*
G75*
G03X163012500Y-112093000I-10000000J0D01*
G01*
D11*
X147850595Y-108745380D02*
X147850595Y-109554904D01*
X147898214Y-109650142D01*
X147945833Y-109697761D01*
X148041071Y-109745380D01*
X148231547Y-109745380D01*
X148326785Y-109697761D01*
X148374404Y-109650142D01*
X148422023Y-109554904D01*
X148422023Y-108745380D01*
X149422023Y-109745380D02*
X148850595Y-109745380D01*
X149136309Y-109745380D02*
X149136309Y-108745380D01*
X149041071Y-108888238D01*
X148945833Y-108983476D01*
X148850595Y-109031095D01*
X155467261Y-107345380D02*
X155133928Y-106869190D01*
X154895833Y-107345380D02*
X154895833Y-106345380D01*
X155276785Y-106345380D01*
X155372023Y-106393000D01*
X155419642Y-106440619D01*
X155467261Y-106535857D01*
X155467261Y-106678714D01*
X155419642Y-106773952D01*
X155372023Y-106821571D01*
X155276785Y-106869190D01*
X154895833Y-106869190D01*
X155800595Y-107345380D02*
X156324404Y-106678714D01*
X155800595Y-106678714D02*
X156324404Y-107345380D01*
X154919642Y-118993000D02*
X154824404Y-118945380D01*
X154681547Y-118945380D01*
X154538690Y-118993000D01*
X154443452Y-119088238D01*
X154395833Y-119183476D01*
X154348214Y-119373952D01*
X154348214Y-119516809D01*
X154395833Y-119707285D01*
X154443452Y-119802523D01*
X154538690Y-119897761D01*
X154681547Y-119945380D01*
X154776785Y-119945380D01*
X154919642Y-119897761D01*
X154967261Y-119850142D01*
X154967261Y-119516809D01*
X154776785Y-119516809D01*
X155395833Y-119278714D02*
X155395833Y-119945380D01*
X155395833Y-119373952D02*
X155443452Y-119326333D01*
X155538690Y-119278714D01*
X155681547Y-119278714D01*
X155776785Y-119326333D01*
X155824404Y-119421571D01*
X155824404Y-119945380D01*
X156729166Y-119945380D02*
X156729166Y-118945380D01*
X156729166Y-119897761D02*
X156633928Y-119945380D01*
X156443452Y-119945380D01*
X156348214Y-119897761D01*
X156300595Y-119850142D01*
X156252976Y-119754904D01*
X156252976Y-119469190D01*
X156300595Y-119373952D01*
X156348214Y-119326333D01*
X156443452Y-119278714D01*
X156633928Y-119278714D01*
X156729166Y-119326333D01*
X149226785Y-119614428D02*
X149988690Y-119614428D01*
X149607738Y-119995380D02*
X149607738Y-119233476D01*
X150941071Y-118995380D02*
X150464880Y-118995380D01*
X150417261Y-119471571D01*
X150464880Y-119423952D01*
X150560119Y-119376333D01*
X150798214Y-119376333D01*
X150893452Y-119423952D01*
X150941071Y-119471571D01*
X150988690Y-119566809D01*
X150988690Y-119804904D01*
X150941071Y-119900142D01*
X150893452Y-119947761D01*
X150798214Y-119995380D01*
X150560119Y-119995380D01*
X150464880Y-119947761D01*
X150417261Y-119900142D01*
X151274404Y-118995380D02*
X151607738Y-119995380D01*
X151941071Y-118995380D01*
M02*
